<svg width="32" height="32" viewBox="0 0 32 32" fill="none" xmlns="http://www.w3.org/2000/svg">
<path d="M15.5997 0.459961C12.6052 0.459961 9.67803 1.34792 7.18824 3.01155C4.69845 4.67517 2.75789 7.03975 1.61196 9.80626C0.466033 12.5728 0.166206 15.617 0.750394 18.5539C1.33458 21.4908 2.77655 24.1885 4.89394 26.3059C7.01134 28.4233 9.70907 29.8653 12.646 30.4495C15.5829 31.0337 18.6271 30.7338 21.3936 29.5879C24.1601 28.442 26.5247 26.5014 28.1883 24.0116C29.8519 21.5218 30.7399 18.5946 30.7399 15.6002C30.7353 11.5861 29.1387 7.73782 26.3004 4.89947C23.462 2.06111 19.6137 0.464524 15.5997 0.459961Z" fill="#F04847"/>
<path d="M11.1201 12.5712L18.6298 20.0809C19.0306 20.4817 19.6804 20.4817 20.0812 20.0809C20.482 19.6801 20.482 19.0303 20.0812 18.6295L12.5715 11.1198C12.1707 10.719 11.5209 10.719 11.1201 11.1198C10.7193 11.5206 10.7193 12.1704 11.1201 12.5712Z" fill="white"/>
<path d="M18.629 11.1198L11.1193 18.6295C10.7185 19.0303 10.7185 19.6801 11.1193 20.0809C11.5201 20.4817 12.1699 20.4817 12.5707 20.0809L20.0804 12.5712C20.4812 12.1704 20.4812 11.5206 20.0804 11.1198C19.6796 10.719 19.0298 10.719 18.629 11.1198Z" fill="white"/>
</svg>
